<svg width="42" height="32" viewBox="0 0 42 32" fill="none">
<path d="M3.16216 31.4624H38.8378C40.032 31.4624 41 30.7364 41 29.8408V3.08402C41 2.1884 40.032 1.4624 38.8378 1.4624H3.16216C1.968 1.4624 1 2.1884 1 3.08402V29.8408C1 30.7364 1.968 31.4624 3.16216 31.4624Z" stroke="#049604" stroke-linecap="round" stroke-linejoin="round"/>
<path d="M32.5239 12.126H37.747" stroke="#049604" stroke-linecap="round" stroke-linejoin="round"/>
<path d="M35.1353 20.7571V12.126" stroke="#049604" stroke-linecap="round" stroke-linejoin="round"/>
<path d="M25.4829 12.126V17.898C25.4829 19.477 26.6522 20.757 28.0944 20.757C29.5366 20.757 30.7059 19.4769 30.7059 17.898V12.126" stroke="#049604" stroke-linecap="round" stroke-linejoin="round"/>
<path d="M14.4855 16.4415C15.574 16.4415 16.4565 17.4076 16.4565 18.5993C16.4565 19.791 15.574 20.7571 14.4855 20.7571H11.2334V12.126H14.4855C15.574 12.126 16.4565 13.0921 16.4565 14.2838C16.4565 15.4755 15.574 16.4415 14.4855 16.4415Z" stroke="#049604" stroke-linecap="round" stroke-linejoin="round"/>
<path d="M14.4851 16.4414H11.2329" stroke="#049604" stroke-linecap="round" stroke-linejoin="round"/>
<path d="M8.51302 17.8696H5.09766" stroke="#049604" stroke-linecap="round" stroke-linejoin="round"/>
<path d="M4.24609 20.7315L6.80832 12.126L9.37066 20.7571" stroke="#049604" stroke-linecap="round" stroke-linejoin="round"/>
<path d="M20.8962 12.1262H20.8961C19.4539 12.1262 18.2847 13.4062 18.2847 14.9852V17.8984C18.2847 19.4774 19.4539 20.7574 20.8961 20.7574H20.8962C22.3385 20.7574 23.5077 19.4774 23.5077 17.8984V14.9852C23.5077 13.4062 22.3385 12.1262 20.8962 12.1262Z" stroke="#049604" stroke-linecap="round" stroke-linejoin="round"/>
</svg>
