<svg width="100%" height="100%" viewBox="0 0 734 734" fill="none" xmlns="http://www.w3.org/2000/svg">
  <path d="M367.388 34L455.228 121.84H612.827V279.438L700.667 367.278L612.827 455.228V612.827H455.228L367.388 700.667L279.44 612.827H121.839V455.228L34 367.278L121.839 279.438V121.84H279.44L367.388 34Z" fill="#2F88FF" stroke="#e8e8ea" stroke-width="66.6667" stroke-miterlimit="10" stroke-linecap="round" stroke-linejoin="round"/>
  <path d="M410.333 365.833C410.333 390.411 390.411 410.333 365.833 410.333C341.257 410.333 321.333 390.411 321.333 365.833C321.333 341.257 341.257 321.333 365.833 321.333C390.411 321.333 410.333 341.257 410.333 365.833Z" stroke="white" stroke-width="31" stroke-linecap="round" stroke-linejoin="round"/>
  <path d="M301.658 264.941L300.516 278.65C299.918 285.822 299.619 289.407 298.073 292.208C296.71 294.677 294.677 296.71 292.208 298.073C289.407 299.619 285.821 299.918 278.65 300.516L264.941 301.658C249.586 302.938 241.909 303.577 238.124 307.085C234.831 310.137 233.083 314.508 233.362 318.989C233.684 324.139 238.802 329.897 249.039 341.413L257.499 350.932C262.5 356.558 265.001 359.37 265.951 362.546C266.787 365.342 266.787 368.324 265.951 371.12C265.001 374.294 262.5 377.108 257.499 382.735L249.039 392.252C238.802 403.768 233.684 409.526 233.362 414.677C233.083 419.159 234.831 423.529 238.124 426.581C241.909 430.089 249.586 430.729 264.941 432.008L278.65 433.151C285.822 433.748 289.407 434.047 292.208 435.594C294.677 436.957 296.71 438.99 298.073 441.458C299.619 444.259 299.918 447.844 300.516 455.016L301.658 468.725C302.938 484.08 303.577 491.758 307.085 495.543C310.137 498.835 314.508 500.584 318.989 500.304C324.139 499.983 329.897 494.863 341.413 484.628L350.932 476.167C356.558 471.165 359.37 468.666 362.546 467.716C365.342 466.878 368.324 466.878 371.12 467.716C374.294 468.666 377.108 471.165 382.735 476.167L392.252 484.628C403.768 494.863 409.526 499.983 414.677 500.304C419.159 500.584 423.529 498.835 426.581 495.543C430.089 491.758 430.729 484.08 432.008 468.725L433.151 455.016C433.748 447.844 434.047 444.259 435.594 441.458C436.957 438.99 438.99 436.957 441.458 435.594C444.259 434.047 447.844 433.748 455.016 433.151L468.725 432.008C484.08 430.729 491.758 430.089 495.543 426.581C498.835 423.529 500.584 419.159 500.304 414.677C499.983 409.526 494.863 403.768 484.628 392.252L476.167 382.735C471.165 377.108 468.666 374.294 467.716 371.12C466.878 368.324 466.878 365.342 467.716 362.546C468.666 359.37 471.165 356.558 476.167 350.932L484.628 341.413C494.863 329.897 499.983 324.139 500.304 318.989C500.584 314.508 498.835 310.137 495.543 307.085C491.758 303.577 484.08 302.938 468.725 301.658L455.016 300.516C447.844 299.918 444.259 299.619 441.458 298.073C438.99 296.71 436.957 294.677 435.594 292.208C434.047 289.407 433.748 285.822 433.151 278.65L432.008 264.941C430.729 249.586 430.089 241.909 426.581 238.124C423.529 234.831 419.159 233.083 414.677 233.362C409.526 233.684 403.768 238.802 392.252 249.039L382.735 257.499C377.108 262.5 374.294 265.001 371.12 265.951C368.324 266.787 365.342 266.787 362.546 265.951C359.37 265.001 356.558 262.5 350.932 257.499L341.413 249.039C329.897 238.802 324.139 233.684 318.989 233.362C314.508 233.083 310.137 234.831 307.085 238.124C303.577 241.909 302.938 249.586 301.658 264.941Z" stroke="#E7F541" stroke-width="31" stroke-linecap="round" stroke-linejoin="round"/>
</svg>
